<svg fill="rgba(0, 0, 0, 0.75)" width="100%" height="100%" viewBox="170 0 40 40" version="1.1" xmlns="http://www.w3.org/2000/svg" xmlns:xlink="http://www.w3.org/1999/xlink" xml:space="preserve" xmlns:serif="http://www.serif.com/" style="fill-rule:evenodd;clip-rule:evenodd;stroke-linejoin:round;stroke-miterlimit:2;">
  <g transform="matrix(0.635723,0,0,0.635723,-492.921,-323.608)">
    <path d="M1099.4,549.4L1099.4,536.9L1078.1,536.9L1065.6,549.4L1099.4,549.4Z" />
    <path d="M1123.4,518.4L1096.7,518.4L1084.1,530.9L1123.4,530.9L1123.4,518.4Z" />
    <path d="M1053.2,561.9L1059.6,555.5L1081.2,555.5L1081.2,568L1053.2,568L1053.2,561.9Z" />
    <path d="M1057.9,543.3L1071.7,543.3L1084.3,530.8L1057.9,530.8L1057.9,543.3Z" />
    <path d="M1042.8,561.9L1053.2,561.9L1065.6,549.4L1042.8,549.4L1042.8,561.9Z" />
    <path d="M1096.7,518.4L1090.3,524.8L1049.5,524.8L1049.5,512.3L1096.7,512.3L1096.7,518.4Z" />
  </g>
</svg>
